<?xml version="1.0" encoding="UTF-8" standalone="no"?>
<svg
   version="1.0"
   width="1000.000000pt"
   height="1000.000000pt"
   viewBox="0 0 1000.000000 1000.000000"
   preserveAspectRatio="xMidYMid meet"
   id="svg49"
   sodipodi:docname="pp_840x830-pad_1000x1000_f8f8f8.u2.svg"
   inkscape:version="1.2.1 (9c6d41e4, 2022-07-14)"
   xmlns:inkscape="http://www.inkscape.org/namespaces/inkscape"
   xmlns:sodipodi="http://sodipodi.sourceforge.net/DTD/sodipodi-0.dtd"
   xmlns="http://www.w3.org/2000/svg"
   xmlns:svg="http://www.w3.org/2000/svg">
  <defs
     id="defs53" />
  <sodipodi:namedview
     id="namedview51"
     pagecolor="#ffffff"
     bordercolor="#000000"
     borderopacity="0.25"
     inkscape:showpageshadow="2"
     inkscape:pageopacity="0.0"
     inkscape:pagecheckerboard="0"
     inkscape:deskcolor="#d1d1d1"
     inkscape:document-units="pt"
     showgrid="false"
     inkscape:zoom="0.177"
     inkscape:cx="669.49153"
     inkscape:cy="666.66667"
     inkscape:window-width="1309"
     inkscape:window-height="456"
     inkscape:window-x="0"
     inkscape:window-y="25"
     inkscape:window-maximized="0"
     inkscape:current-layer="svg49" />
  <g
     transform="matrix(0.1275679,0,0,-0.12348377,-125.12763,1130.1307)"
     fill="#000000"
     stroke="none"
     id="g47">
    <path
       d="M 850,5000 V 850 H 5000 9150 V 5000 9150 H 5000 850 Z m 3374,3217 401,-222 970,6 c 534,3 971,5 973,3 4,-2 -825,-543 -844,-551 -8,-3 -14,-9 -14,-13 0,-4 136,-84 303,-177 l 302,-169 767,6 c 562,4 764,2 755,-6 -7,-6 -266,-177 -577,-379 -311,-203 -706,-460 -878,-572 l -312,-205 -368,175 -367,174 -7,-101 c -4,-56 -9,-316 -12,-579 -3,-403 -2,-478 10,-473 7,3 196,120 420,261 l 406,256 63,-36 c 35,-19 65,-35 67,-35 2,0 3,28 3,63 v 62 l 562,337 563,337 242,-136 242,-136 584,6 584,7 -680,-445 -681,-444 -278,133 c -153,73 -279,132 -281,131 -4,-3 -33,-855 -30,-875 2,-14 68,23 328,187 l 325,205 30,-16 c 16,-9 138,-79 270,-154 l 240,-138 v -74 c 0,-194 -17,-1592 -20,-1644 l -4,-60 -298,-176 c -164,-97 -409,-243 -545,-323 -137,-81 -252,-147 -257,-147 -5,0 -116,56 -247,124 l -239,125 -239,8 -238,8 -412,-244 c -226,-134 -415,-244 -421,-244 -5,0 -100,48 -210,105 -110,58 -246,128 -302,157 l -101,52 -654,-387 c -359,-212 -659,-391 -665,-396 -9,-7 -133,52 -419,201 l -406,211 -747,29 c -410,17 -788,31 -838,33 -51,2 -93,4 -93,6 0,2 45,70 100,151 l 100,147 902,509 903,509 423,-214 c 233,-118 427,-216 432,-218 6,-2 10,220 10,598 0,331 -3,600 -7,598 -23,-10 -436,-220 -477,-242 l -49,-26 -456,252 c -251,138 -555,307 -676,374 l -220,122 -3,1344 -2,1345 592,354 c 326,195 748,447 938,561 190,114 349,207 354,208 5,0 190,-100 410,-223 z"
       id="path9" />
    <path
       d="m 3000,7922 c -448,-268 -865,-516 -925,-552 l -110,-66 -2,-1329 -2,-1330 662,-366 662,-366 266,136 c 231,117 269,134 283,122 14,-12 16,-74 16,-616 0,-332 -3,-610 -6,-619 -3,-9 -13,-16 -21,-16 -16,0 -422,201 -710,352 -84,44 -156,78 -160,75 -5,-2 -408,-230 -898,-505 l -890,-502 -79,-120 c -43,-66 -77,-122 -75,-124 2,-2 369,-17 814,-35 l 810,-32 397,-206 c 218,-113 400,-205 403,-205 4,0 410,239 903,531 493,292 901,532 905,534 7,2 51,2937 45,2943 -2,1 -115,66 -253,144 -137,78 -332,190 -433,247 -101,58 -189,102 -197,100 -12,-5 -179,-109 -800,-500 -148,-94 -277,-172 -287,-175 -9,-2 -20,4 -25,15 -6,11 0,279 14,683 28,814 30,847 50,854 8,3 219,-91 478,-214 255,-121 465,-220 468,-220 3,0 148,94 324,208 175,114 661,432 1081,706 419,274 762,499 762,500 0,2 -420,1 -932,-2 l -933,-5 -394,222 c -217,121 -395,221 -395,221 -1,0 -368,-219 -816,-488 z m 847,45 c 149,-88 554,-322 578,-335 13,-6 188,-11 477,-13 252,-2 454,-7 450,-10 -4,-4 -276,-167 -604,-363 l -598,-356 -507,239 c -280,131 -541,255 -582,275 -41,20 -76,35 -77,33 -2,-1 -7,-459 -13,-1017 -6,-558 -13,-1104 -16,-1214 -4,-177 -3,-197 11,-192 8,3 309,173 667,377 l 652,370 297,-143 298,-143 -6,-1060 c -4,-583 -9,-1176 -13,-1319 l -6,-259 -325,-191 c -179,-105 -346,-204 -373,-219 l -47,-28 2,1185 c 2,653 3,1186 2,1186 -1,0 -208,-118 -460,-262 -252,-144 -463,-261 -469,-261 -5,0 -228,122 -495,271 l -485,271 v 1156 1157 l 225,136 c 124,75 468,284 765,464 296,180 541,328 542,328 2,0 51,-29 110,-63 z m 94,-5581 57,-31 -321,-224 c -177,-124 -326,-224 -332,-224 -5,0 -167,87 -358,193 l -348,192 -431,14 c -237,7 -432,15 -433,16 -2,2 245,147 547,324 l 550,321 507,-275 c 278,-151 531,-288 562,-306 z"
       id="path11" />
    <path
       d="m 3599,7742 c -75,-53 -180,-128 -234,-166 -83,-58 -95,-70 -80,-78 9,-6 72,-34 139,-63 115,-50 340,-148 654,-285 l 143,-62 321,193 321,194 -274,5 -274,5 -65,42 c -229,146 -497,313 -505,313 -6,-1 -71,-44 -146,-98 z"
       id="path13" />
    <path
       d="M 2563,7117 2361,6985 V 5930 l -1,-1055 113,-62 c 61,-33 251,-138 422,-232 l 309,-171 472,270 c 260,148 476,270 480,270 5,0 26,-16 46,-35 l 37,-34 2,-1131 c 1,-621 5,-1130 8,-1130 3,0 116,63 251,139 l 245,138 3,1245 2,1246 -157,67 c -87,37 -192,83 -234,100 l -76,33 -49,-31 c -27,-17 -316,-191 -642,-388 l -593,-358 -82,36 c -45,19 -87,40 -93,47 -10,9 -32,1078 -46,2209 -1,81 -4,147 -7,147 -3,0 -97,-60 -208,-133 z"
       id="path15" />
    <path
       d="m 2615,2649 c -148,-88 -273,-164 -277,-168 -5,-4 65,-8 155,-10 l 162,-2 125,-77 c 69,-42 221,-136 339,-210 l 214,-133 41,29 c 23,16 117,82 209,147 l 169,117 -423,234 c -232,129 -427,234 -433,233 -6,0 -132,-72 -281,-160 z"
       id="path17" />
    <path
       d="m 5580,7351 c -52,-31 -309,-197 -570,-368 -789,-515 -703,-462 -734,-446 -14,8 -31,11 -37,8 -10,-7 -13,-478 -3,-488 3,-3 43,18 89,46 l 84,52 1,116 v 116 l 373,225 c 204,124 477,289 605,367 l 233,142 277,-160 277,-159 357,-4 c 197,-2 358,-5 357,-8 0,-4 -773,-466 -902,-539 l -42,-24 -455,214 -455,215 -6,-111 c -4,-60 -7,-250 -8,-422 l -1,-311 126,-71 c 70,-39 128,-70 130,-68 2,2 9,142 15,313 8,227 15,313 24,323 11,12 70,-13 377,-159 200,-95 368,-173 373,-173 15,0 1669,1082 1674,1095 2,6 -1,8 -6,5 -6,-4 -330,-7 -722,-7 l -711,-2 -305,171 c -168,94 -309,171 -313,170 -4,0 -50,-26 -102,-58 z"
       id="path19" />
    <path
       d="m 5448,6849 c -101,-71 -184,-132 -185,-136 -2,-5 164,-81 368,-171 l 372,-162 222,134 c 121,74 233,140 248,147 15,7 27,16 27,21 0,4 -94,8 -209,8 h -209 l -103,66 c -57,36 -159,101 -226,144 l -122,78 z"
       id="path21" />
    <path
       d="m 3366,6962 c -2,-4 -5,-59 -6,-122 -1,-63 -12,-396 -24,-740 -13,-344 -22,-626 -21,-628 1,-1 65,37 141,86 77,48 277,175 447,281 l 307,194 -2,269 -3,270 -300,142 c -165,79 -353,168 -417,199 -65,30 -120,52 -122,49 z"
       id="path23" />
    <path
       d="m 4698,6403 -158,-105 v -107 -106 l 63,-34 c 34,-19 108,-61 164,-93 56,-32 104,-58 107,-58 3,0 4,17 2,38 -3,20 -5,157 -5,305 -1,147 -4,267 -8,266 -5,0 -79,-48 -165,-106 z"
       id="path25" />
    <path
       d="m 6855,6014 -540,-324 -3,-64 -3,-64 63,-36 63,-35 3,42 3,42 117,69 c 64,38 271,163 460,278 l 343,209 208,-121 208,-120 134,-1 c 74,-1 196,-4 271,-8 l 138,-6 -355,-212 -356,-212 -267,126 c -147,69 -303,142 -347,163 l -80,37 -7,-241 c -10,-399 -15,-1206 -6,-1206 4,0 181,99 393,220 213,121 390,220 394,220 5,0 88,-38 186,-85 l 178,-86 -7,-82 c -3,-45 -6,-398 -7,-784 l -1,-702 -222,-130 -221,-130 -3,704 c -1,388 -4,705 -6,705 -1,0 -126,-70 -276,-155 -150,-85 -275,-155 -279,-155 -3,0 -46,23 -94,50 l -88,49 3,-77 3,-76 119,-66 118,-65 157,79 c 99,50 164,77 174,73 16,-6 17,-40 17,-380 0,-312 -2,-377 -14,-386 -12,-10 -66,13 -273,117 -249,126 -259,130 -285,116 -28,-14 -28,-16 -28,-107 v -92 l 335,-180 c 184,-99 335,-183 335,-186 0,-6 -361,-261 -378,-266 -4,-2 -100,48 -214,110 l -206,114 -107,7 -107,7 -108,-63 c -60,-35 -109,-66 -110,-69 0,-3 98,-10 218,-16 l 217,-9 233,-122 232,-123 538,318 537,318 6,530 c 4,292 9,683 13,870 l 6,340 -254,145 c -139,79 -256,144 -259,145 -2,0 -148,-90 -323,-200 -175,-110 -323,-201 -329,-203 -36,-9 -37,15 -20,480 12,346 19,456 30,467 11,11 57,-8 290,-118 153,-73 285,-129 293,-126 19,7 1213,784 1232,802 13,12 -65,13 -520,7 l -535,-6 -234,131 c -128,72 -238,131 -245,130 -6,0 -254,-147 -551,-325 z"
       id="path27" />
    <path
       d="m 7325,5992 c -22,-16 -87,-62 -143,-102 l -104,-72 286,-125 286,-125 190,113 189,114 -162,5 -162,5 -158,103 c -88,57 -164,105 -171,108 -6,2 -29,-8 -51,-24 z"
       id="path29" />
    <path
       d="m 6657,5584 c -116,-75 -117,-76 -117,-114 v -38 l 118,-68 c 64,-37 120,-69 125,-71 4,-2 7,79 7,181 0,102 -4,186 -8,186 -4,0 -60,-34 -125,-76 z"
       id="path31" />
    <path
       d="m 5734,5353 -419,-264 -3,-84 c -1,-47 -1,-85 1,-85 3,0 168,93 368,207 200,113 368,206 374,206 5,0 113,-50 239,-112 l 229,-111 -6,-647 c -4,-355 -7,-820 -7,-1032 v -386 l -293,-172 -292,-171 -5,928 -5,929 -307,-176 -308,-176 v -149 -148 l 189,95 c 104,52 194,95 200,95 28,0 31,-50 31,-500 0,-299 -4,-468 -10,-481 -6,-10 -18,-19 -27,-19 -9,0 -99,43 -200,96 -102,53 -186,94 -188,92 -2,-1 -5,-77 -6,-167 l -4,-165 268,-144 c 147,-80 267,-148 267,-151 0,-7 -495,-351 -505,-351 -3,0 -80,41 -171,91 -90,50 -168,89 -172,87 -23,-9 -162,-94 -162,-98 0,-5 565,-300 575,-300 7,0 1408,829 1416,838 4,4 12,477 18,1052 6,575 14,1090 17,1145 l 5,100 -344,196 -344,195 z"
       id="path33" />
    <path
       d="m 5679,4977 -366,-222 -6,-204 c -4,-113 -5,-207 -2,-209 2,-3 145,76 317,174 172,99 318,180 324,182 6,2 25,-9 43,-23 l 31,-27 v -889 c 0,-489 2,-889 4,-889 2,0 91,49 198,109 l 193,110 2,978 3,978 -183,78 c -100,42 -184,77 -187,76 -3,0 -170,-100 -371,-222 z"
       id="path35" />
    <path
       d="m 7305,4439 c -248,-150 -386,-228 -397,-224 -63,19 -58,25 -58,-62 v -79 l 96,-54 c 93,-51 98,-52 123,-38 14,9 142,82 283,162 l 257,147 31,-22 30,-23 -2,-673 c -2,-370 -1,-673 2,-673 2,0 71,37 152,83 l 148,82 -2,744 -3,743 -125,54 c -68,30 -131,56 -140,59 -8,2 -186,-99 -395,-226 z"
       id="path37" />
    <path
       d="m 5489,3974 -186,-95 -7,-61 c -3,-34 -6,-158 -6,-277 v -216 l 195,-98 c 107,-53 197,-97 200,-97 3,0 5,212 5,470 0,259 -3,470 -7,470 -5,0 -92,-44 -194,-96 z"
       id="path39" />
    <path
       d="m 7243,3729 -151,-79 -116,65 c -64,36 -119,65 -124,65 -4,0 -9,-104 -11,-230 l -3,-230 29,17 30,16 256,-132 257,-132 v 361 c 0,198 -3,359 -7,359 -5,-1 -76,-37 -160,-80 z"
       id="path41" />
    <path
       d="m 6840,2961 v -49 l -87,-51 c -57,-33 -80,-51 -66,-51 12,0 110,-54 217,-120 106,-66 200,-122 208,-125 7,-3 63,29 123,71 117,81 146,104 129,104 -6,0 -120,61 -254,135 -134,74 -249,135 -256,135 -10,0 -14,-14 -14,-49 z"
       id="path43" />
    <path
       d="m 5280,2756 v -84 l -82,-51 c -46,-27 -89,-54 -96,-58 -8,-5 24,-30 95,-75 l 107,-67 86,61 c 47,33 120,83 162,111 43,29 78,54 78,57 0,6 -333,190 -344,190 -3,0 -6,-38 -6,-84 z"
       id="path45" />
  </g>
</svg>
